<svg xmlns="http://www.w3.org/2000/svg" xmlns:xlink="http://www.w3.org/1999/xlink" width="50" zoomAndPan="magnify" viewBox="0 0 37.5 37.499999" height="50" preserveAspectRatio="xMidYMid meet" version="1.2"><defs><clipPath id="45d17166df"><path d="M 0.894531 6.464844 L 36.421875 6.464844 L 36.421875 30.886719 L 0.894531 30.886719 Z M 0.894531 6.464844 "/></clipPath></defs><g id="1cc8d6cfa5"><g style="fill:#ffffff;fill-opacity:1;"><g transform="translate(9.487296, 27.247437)"><path style="stroke:none" d="M 11.679688 -13.191406 L 11.679688 -5.277344 C 11.679688 -4.460938 11.523438 -3.695312 11.21875 -2.972656 C 10.910156 -2.25 10.484375 -1.617188 9.9375 -1.070312 C 9.390625 -0.523438 8.757812 -0.09375 8.042969 0.210938 C 7.328125 0.519531 6.554688 0.671875 5.730469 0.671875 C 4.914062 0.671875 4.144531 0.519531 3.421875 0.210938 C 2.703125 -0.09375 2.070312 -0.523438 1.53125 -1.070312 C 0.988281 -1.617188 0.566406 -2.25 0.257812 -2.972656 C -0.046875 -3.695312 -0.203125 -4.460938 -0.203125 -5.277344 C -0.203125 -6.105469 -0.046875 -6.875 0.257812 -7.59375 C 0.566406 -8.304688 0.988281 -8.933594 1.53125 -9.480469 C 2.070312 -10.03125 2.703125 -10.457031 3.421875 -10.765625 C 4.144531 -11.074219 4.914062 -11.226562 5.730469 -11.226562 L 6.78125 -11.226562 L 6.78125 -5.882812 L 5.730469 -5.882812 C 5.566406 -5.882812 5.425781 -5.824219 5.3125 -5.710938 C 5.199219 -5.589844 5.140625 -5.445312 5.140625 -5.277344 C 5.140625 -5.109375 5.199219 -4.964844 5.3125 -4.84375 C 5.425781 -4.726562 5.566406 -4.667969 5.730469 -4.667969 C 5.90625 -4.667969 6.050781 -4.726562 6.164062 -4.84375 C 6.277344 -4.964844 6.335938 -5.109375 6.335938 -5.277344 L 6.335938 -13.542969 L 11.679688 -13.542969 Z M 10.972656 -13.191406 L 11.324219 -13.191406 L 11.324219 -12.839844 L 6.691406 -12.839844 L 6.691406 -13.191406 L 7.042969 -13.191406 L 7.042969 -5.277344 C 7.042969 -4.917969 6.917969 -4.609375 6.671875 -4.351562 C 6.417969 -4.09375 6.105469 -3.960938 5.730469 -3.960938 C 5.363281 -3.960938 5.058594 -4.09375 4.804688 -4.351562 C 4.558594 -4.609375 4.433594 -4.917969 4.433594 -5.277344 C 4.433594 -5.636719 4.558594 -5.945312 4.804688 -6.199219 C 5.058594 -6.460938 5.363281 -6.589844 5.730469 -6.589844 L 6.425781 -6.589844 L 6.425781 -6.238281 L 6.074219 -6.238281 L 6.074219 -10.875 L 6.425781 -10.875 L 6.425781 -10.519531 L 5.730469 -10.519531 C 5.011719 -10.519531 4.335938 -10.386719 3.699219 -10.113281 C 3.0625 -9.84375 2.507812 -9.46875 2.03125 -8.984375 C 1.554688 -8.503906 1.179688 -7.945312 0.910156 -7.3125 C 0.640625 -6.6875 0.503906 -6.007812 0.503906 -5.277344 C 0.503906 -4.558594 0.640625 -3.882812 0.910156 -3.246094 C 1.179688 -2.609375 1.554688 -2.050781 2.03125 -1.566406 C 2.507812 -1.085938 3.0625 -0.707031 3.699219 -0.4375 C 4.335938 -0.167969 5.011719 -0.03125 5.730469 -0.03125 C 6.460938 -0.03125 7.136719 -0.167969 7.765625 -0.4375 C 8.394531 -0.707031 8.953125 -1.085938 9.4375 -1.570312 C 9.917969 -2.050781 10.296875 -2.613281 10.566406 -3.246094 C 10.835938 -3.882812 10.972656 -4.558594 10.972656 -5.277344 Z M 10.972656 -13.191406 "/></g></g><g clip-rule="nonzero" clip-path="url(#45d17166df)"><path style=" stroke:none;fill-rule:nonzero;fill:#ffffff;fill-opacity:1;" d="M 27.285156 12.953125 C 27.203125 12.953125 27.121094 12.953125 27.035156 12.957031 C 25.425781 9.0625 21.59375 6.472656 17.367188 6.472656 C 11.757812 6.472656 7.164062 10.90625 6.910156 16.476562 C 3.5 16.984375 0.894531 19.953125 0.894531 23.445312 C 0.894531 27.332031 4.058594 30.496094 7.945312 30.496094 L 27.285156 30.496094 C 32.121094 30.496094 36.058594 26.5625 36.058594 21.726562 C 36.058594 16.890625 32.121094 12.953125 27.285156 12.953125 Z M 27.285156 29.402344 L 7.945312 29.402344 C 4.660156 29.402344 1.988281 26.730469 1.988281 23.445312 C 1.988281 20.355469 4.40625 17.75 7.488281 17.511719 L 7.992188 17.449219 L 7.992188 16.941406 C 7.992188 11.773438 12.195312 7.566406 17.367188 7.566406 C 21.273438 7.566406 24.808594 10.039062 26.15625 13.71875 L 26.363281 14.101562 L 26.773438 14.070312 C 26.941406 14.058594 27.113281 14.046875 27.285156 14.046875 C 31.519531 14.046875 34.964844 17.488281 34.964844 21.722656 C 34.964844 25.957031 31.519531 29.402344 27.285156 29.402344 Z M 27.285156 29.402344 "/></g><g style="fill:#ffffff;fill-opacity:1;"><g transform="translate(21.899191, 27.458156)"><path style="stroke:none" d="M -0.046875 0 L -0.046875 -3.019531 L 3.71875 -3.019531 L 3.71875 -2.792969 L 3.492188 -2.792969 L 3.492188 -3.007812 L 3.71875 -3.007812 L 3.71875 -2.78125 L -0.046875 -2.78125 L -0.046875 -5.640625 L 3.71875 -5.640625 L 3.71875 -5.414062 L 3.492188 -5.414062 L 3.492188 -5.632812 L 3.71875 -5.632812 L 3.71875 -5.40625 L -0.046875 -5.40625 L -0.046875 -8.648438 L 3.574219 -8.648438 C 4.050781 -8.648438 4.507812 -8.636719 4.945312 -8.613281 C 5.40625 -8.589844 5.832031 -8.492188 6.226562 -8.324219 C 6.636719 -8.152344 6.988281 -7.851562 7.285156 -7.421875 C 7.519531 -7.09375 7.652344 -6.71875 7.6875 -6.300781 C 7.722656 -5.890625 7.671875 -5.5 7.535156 -5.121094 C 7.398438 -4.738281 7.167969 -4.421875 6.851562 -4.179688 L 6.714844 -4.355469 L 6.839844 -4.546875 C 7.128906 -4.355469 7.351562 -4.109375 7.511719 -3.804688 C 7.664062 -3.511719 7.757812 -3.191406 7.792969 -2.851562 C 7.828125 -2.515625 7.808594 -2.183594 7.734375 -1.859375 C 7.660156 -1.527344 7.535156 -1.234375 7.359375 -0.980469 C 7.058594 -0.546875 6.699219 -0.25 6.277344 -0.078125 C 5.871094 0.0820312 5.433594 0.175781 4.960938 0.195312 C 4.515625 0.214844 4.050781 0.226562 3.574219 0.226562 L -0.046875 0.226562 Z M 0.40625 0 L 0.179688 0 L 0.179688 -0.226562 L 3.574219 -0.226562 C 4.042969 -0.226562 4.5 -0.234375 4.941406 -0.253906 C 5.363281 -0.273438 5.75 -0.355469 6.109375 -0.5 C 6.449219 -0.632812 6.742188 -0.878906 6.988281 -1.234375 C 7.132812 -1.445312 7.234375 -1.683594 7.296875 -1.957031 C 7.359375 -2.234375 7.375 -2.515625 7.34375 -2.804688 C 7.316406 -3.089844 7.238281 -3.351562 7.113281 -3.597656 C 6.988281 -3.832031 6.816406 -4.019531 6.59375 -4.167969 L 6.328125 -4.34375 L 6.578125 -4.535156 C 6.824219 -4.726562 7 -4.972656 7.109375 -5.277344 C 7.222656 -5.589844 7.265625 -5.917969 7.238281 -6.261719 C 7.207031 -6.601562 7.101562 -6.898438 6.914062 -7.164062 C 6.667969 -7.523438 6.378906 -7.769531 6.050781 -7.910156 C 5.703125 -8.054688 5.328125 -8.140625 4.921875 -8.164062 C 4.492188 -8.1875 4.042969 -8.199219 3.574219 -8.199219 L 0.179688 -8.199219 L 0.179688 -8.425781 L 0.40625 -8.425781 L 0.40625 -5.632812 L 0.179688 -5.632812 L 0.179688 -5.859375 L 3.945312 -5.859375 L 3.945312 -5.191406 L 0.179688 -5.191406 L 0.179688 -5.414062 L 0.40625 -5.414062 L 0.40625 -3.007812 L 0.179688 -3.007812 L 0.179688 -3.234375 L 3.945312 -3.234375 L 3.945312 -2.566406 L 0.179688 -2.566406 L 0.179688 -2.792969 L 0.40625 -2.792969 Z M 0.40625 0 "/></g></g></g></svg>